<svg width="836" height="265" viewBox="0 0 836 265" fill="none" xmlns="http://www.w3.org/2000/svg">
<path d="M288.019 257.82C285.009 257.82 282.526 256.842 280.57 254.885C278.614 252.929 277.636 250.446 277.636 247.436V142.926C277.786 131.188 280.57 120.579 285.987 111.098C291.555 101.618 299.004 94.169 308.334 88.7516C317.664 83.3342 328.198 80.6255 339.936 80.6255C351.824 80.6255 362.433 83.4094 371.763 88.9773C381.243 94.3947 388.692 101.844 394.11 111.324C399.678 120.654 402.462 131.338 402.462 143.377C402.462 155.265 399.828 165.95 394.561 175.43C389.445 184.91 382.447 192.359 373.569 197.777C364.69 203.194 354.683 205.903 343.547 205.903C334.067 205.903 325.489 203.947 317.815 200.034C310.14 196.121 303.669 190.855 298.402 184.233V247.436C298.402 250.446 297.424 252.929 295.468 254.885C293.662 256.842 291.179 257.82 288.019 257.82ZM339.936 187.393C347.911 187.393 355.059 185.512 361.38 181.75C367.85 177.838 372.892 172.571 376.503 165.95C380.265 159.178 382.146 151.654 382.146 143.377C382.146 134.95 380.265 127.426 376.503 120.805C372.892 114.033 367.85 108.766 361.38 105.004C355.059 101.091 347.911 99.135 339.936 99.135C331.96 99.135 324.737 101.091 318.266 105.004C311.946 108.916 306.98 114.183 303.368 120.805C299.757 127.426 297.951 134.95 297.951 143.377C297.951 151.654 299.757 159.178 303.368 165.95C306.98 172.571 311.946 177.838 318.266 181.75C324.737 185.512 331.96 187.393 339.936 187.393ZM460.49 205C454.17 205 448.527 203.269 443.561 199.808C438.595 196.347 434.683 191.607 431.823 185.588C429.115 179.418 427.76 172.345 427.76 164.369V38.8664C427.76 35.8567 428.663 33.449 430.469 31.6432C432.425 29.6869 434.908 28.7087 437.918 28.7087C441.078 28.7087 443.561 29.6869 445.367 31.6432C447.323 33.449 448.301 35.8567 448.301 38.8664V164.369C448.301 170.238 449.43 175.054 451.687 178.816C454.095 182.578 457.029 184.459 460.49 184.459H466.134C468.993 184.459 471.25 185.437 472.905 187.393C474.561 189.199 475.388 191.682 475.388 194.842C475.388 197.852 474.109 200.335 471.551 202.291C469.143 204.097 465.983 205 462.071 205H460.49ZM546.485 206.129C535.951 206.129 526.546 203.947 518.269 199.583C509.992 195.068 503.446 188.522 498.631 179.945C493.815 171.367 491.408 160.908 491.408 148.569V91.686C491.408 88.8268 492.386 86.4191 494.342 84.4628C496.449 82.3561 498.932 81.3027 501.791 81.3027C504.801 81.3027 507.284 82.3561 509.24 84.4628C511.347 86.4191 512.4 88.8268 512.4 91.686V148.569C512.4 157.297 514.055 164.52 517.366 170.238C520.677 175.957 525.116 180.245 530.684 183.105C536.402 185.813 542.798 187.168 549.871 187.168C556.793 187.168 562.887 185.813 568.154 183.105C573.572 180.396 577.86 176.784 581.021 172.27C584.331 167.605 585.987 162.413 585.987 156.695H599.53C599.229 166.025 596.746 174.452 592.081 181.976C587.567 189.5 581.322 195.444 573.346 199.808C565.37 204.022 556.417 206.129 546.485 206.129ZM596.37 205C593.36 205 590.877 204.022 588.921 202.066C586.965 200.109 585.987 197.626 585.987 194.617V91.686C585.987 88.6764 586.965 86.1934 588.921 84.2371C590.877 82.2808 593.36 81.3027 596.37 81.3027C599.38 81.3027 601.863 82.2808 603.819 84.2371C605.775 86.1934 606.753 88.6764 606.753 91.686V194.617C606.753 197.626 605.775 200.109 603.819 202.066C601.863 204.022 599.38 205 596.37 205ZM806.675 205.226C803.665 205.226 801.182 204.248 799.226 202.291C797.27 200.335 796.292 197.852 796.292 194.842V130.059C796.292 120.127 793.734 112.528 788.617 107.261C783.651 101.994 777.18 99.3607 769.205 99.3607C760.778 99.3607 753.855 102.295 748.438 108.164C743.171 113.882 740.538 121.331 740.538 130.511H722.931C723.082 120.579 725.264 111.851 729.477 104.327C733.691 96.8025 739.56 90.9336 747.084 86.7201C754.608 82.5065 763.11 80.3998 772.591 80.3998C781.319 80.3998 788.993 82.3561 795.615 86.2686C802.386 90.1812 807.653 95.8996 811.415 103.424C815.177 110.797 817.058 119.676 817.058 130.059V194.842C817.058 197.852 816.08 200.335 814.124 202.291C812.318 204.248 809.835 205.226 806.675 205.226ZM653.182 205.226C650.172 205.226 647.689 204.248 645.733 202.291C643.777 200.335 642.799 197.852 642.799 194.842V92.1375C642.799 88.9773 643.777 86.4943 645.733 84.6885C647.689 82.7323 650.172 81.7541 653.182 81.7541C656.342 81.7541 658.825 82.7323 660.631 84.6885C662.587 86.4943 663.565 88.9773 663.565 92.1375V194.842C663.565 197.852 662.587 200.335 660.631 202.291C658.825 204.248 656.342 205.226 653.182 205.226ZM730.154 205.226C727.145 205.226 724.662 204.248 722.705 202.291C720.749 200.335 719.771 197.852 719.771 194.842V130.059C719.771 120.127 717.213 112.528 712.096 107.261C707.13 101.994 700.66 99.3607 692.684 99.3607C684.257 99.3607 677.259 102.22 671.692 107.938C666.274 113.657 663.565 120.955 663.565 129.834H650.022C650.172 120.203 652.204 111.7 656.116 104.327C660.18 96.8025 665.672 90.9336 672.594 86.7201C679.517 82.5065 687.342 80.3998 696.07 80.3998C704.798 80.3998 712.473 82.3561 719.094 86.2686C725.866 90.1812 731.132 95.8996 734.895 103.424C738.657 110.797 740.538 119.676 740.538 130.059V194.842C740.538 197.852 739.56 200.335 737.603 202.291C735.797 204.248 733.314 205.226 730.154 205.226Z" fill="#0D0D0E"/>
<path fill-rule="evenodd" clip-rule="evenodd" d="M233.306 147.655C233.306 83.2313 181.073 30.9951 116.653 30.9951C52.2328 30.9951 0 83.2162 0 147.655C0 212.095 52.2479 264.316 116.668 264.316C171.672 264.316 217.791 226.245 230.098 175.004C232.063 166.823 233.166 158.305 233.306 149.553C233.316 148.922 233.321 148.289 233.321 147.655H233.306ZM205.957 149.316V147.655C205.957 98.3341 165.967 58.3441 116.653 58.3441C67.3366 58.3441 27.349 98.3213 27.349 147.655C27.349 196.985 67.3471 236.967 116.668 236.967C165.43 236.967 205.071 197.883 205.957 149.316Z" fill="#FFB200"/>
<path d="M154.803 88.1068C154.376 88.791 153.786 89.3591 153.087 89.7607C152.387 90.1624 151.6 90.3852 150.793 90.4093C149.987 90.4335 149.187 90.2582 148.465 89.8991C147.743 89.54 147.12 89.0082 146.653 88.3508C132.466 69.0879 115.454 52.0757 96.1909 37.8887C95.5206 37.427 94.9759 36.8057 94.6059 36.0807C94.2359 35.3558 94.0523 34.5501 94.0717 33.7365C94.0911 32.9228 94.3128 32.1268 94.7169 31.4203C95.1209 30.7138 95.6946 30.1191 96.3861 29.6898C121.748 14.6311 149.763 4.57516 178.912 0.0664943C179.671 -0.0607794 180.45 -0.00480654 181.183 0.229766C181.916 0.464338 182.582 0.870717 183.127 1.41504C183.671 1.95936 184.077 2.62586 184.312 3.35904C184.547 4.09221 184.603 4.87082 184.475 5.63001C179.979 34.7742 169.904 62.7778 154.803 88.1068Z" fill="#1D4ED8"/>
</svg>
